<svg width="50" height="50" viewBox="0 0 50 50" fill="none" xmlns="http://www.w3.org/2000/svg">
<rect width="50" height="50" rx="8" fill="#1A906B"/>
<path d="M32.2562 25.1686C32.1688 25.0818 32.0652 25.0131 31.9512 24.9664C31.8372 24.9196 31.7152 24.8958 31.592 24.8962C31.4688 24.8967 31.3469 24.9214 31.2333 24.9689C31.1196 25.0165 31.0165 25.0859 30.9297 25.1733C30.8429 25.2607 30.7742 25.3644 30.7274 25.4784C30.6807 25.5923 30.6569 25.7144 30.6573 25.8376C30.6577 25.9608 30.6824 26.0827 30.73 26.1963C30.7775 26.3099 30.847 26.4131 30.9344 26.4999C31.7277 27.2848 32.3574 28.2192 32.787 29.2491C33.2167 30.279 33.4378 31.384 33.4375 32.4999C33.4375 33.6436 30.1469 35.3124 25 35.3124C19.8531 35.3124 16.5625 33.6436 16.5625 32.4999C16.561 31.3913 16.778 30.2933 17.2011 29.2686C17.6241 28.2439 18.245 27.3126 19.0281 26.528C19.2027 26.3524 19.3007 26.1148 19.3007 25.8671C19.3007 25.6194 19.2027 25.3818 19.0281 25.2061C18.8525 25.0315 18.6149 24.9335 18.3672 24.9335C18.1195 24.9335 17.8819 25.0315 17.7062 25.2061C16.7454 26.1616 15.9838 27.2983 15.4656 28.5504C14.9474 29.8024 14.6829 31.1449 14.6875 32.4999C14.6875 35.5468 20.0031 37.1874 25 37.1874C29.9969 37.1874 35.3125 35.5468 35.3125 32.4999C35.3161 31.1361 35.0477 29.7852 34.5229 28.5264C33.9981 27.2676 33.2275 26.1261 32.2562 25.1686Z" fill="white"/>
<path d="M25 25.9375C26.2979 25.9375 27.5667 25.5526 28.6459 24.8315C29.7251 24.1104 30.5663 23.0855 31.063 21.8864C31.5597 20.6872 31.6896 19.3677 31.4364 18.0947C31.1832 16.8217 30.5582 15.6524 29.6404 14.7346C28.7226 13.8168 27.5533 13.1918 26.2803 12.9386C25.0073 12.6854 23.6878 12.8153 22.4886 13.312C21.2895 13.8087 20.2646 14.6499 19.5435 15.7291C18.8224 16.8083 18.4375 18.0771 18.4375 19.375C18.4375 21.1155 19.1289 22.7847 20.3596 24.0154C21.5903 25.2461 23.2595 25.9375 25 25.9375ZM25 14.6875C25.9271 14.6875 26.8334 14.9624 27.6042 15.4775C28.3751 15.9926 28.9759 16.7246 29.3307 17.5812C29.6855 18.4377 29.7783 19.3802 29.5974 20.2895C29.4166 21.1988 28.9701 22.034 28.3146 22.6896C27.659 23.3451 26.8238 23.7916 25.9145 23.9724C25.0052 24.1533 24.0627 24.0605 23.2062 23.7057C22.3496 23.3509 21.6176 22.7501 21.1025 21.9792C20.5874 21.2084 20.3125 20.3021 20.3125 19.375C20.3125 18.1318 20.8064 16.9395 21.6854 16.0604C22.5645 15.1814 23.7568 14.6875 25 14.6875Z" fill="white"/>
</svg>
