<svg width="50" height="50" viewBox="0 0 50 50" fill="none" xmlns="http://www.w3.org/2000/svg">
<rect width="50" height="50" rx="8" fill="#1A906B"/>
<path d="M24.2932 27.3928V24.7446C24.293 24.5624 24.2206 24.3878 24.0918 24.259C23.963 24.1303 23.7884 24.0578 23.6063 24.0576H22.6178C22.5453 24.0576 22.4757 24.0864 22.4244 24.1377C22.3731 24.189 22.3443 24.2585 22.3443 24.3311C22.3443 24.4036 22.3731 24.4731 22.4244 24.5244C22.4757 24.5757 22.5453 24.6045 22.6178 24.6045H23.6063C23.6434 24.6045 23.679 24.6193 23.7053 24.6456C23.7315 24.6718 23.7463 24.7074 23.7463 24.7446V27.3928C23.7463 27.4299 23.7315 27.4655 23.7053 27.4918C23.679 27.5181 23.6434 27.5328 23.6063 27.5329H16.585C16.5479 27.5328 16.5123 27.5181 16.486 27.4918C16.4598 27.4655 16.445 27.4299 16.4449 27.3928V24.7446C16.445 24.7074 16.4598 24.6718 16.486 24.6456C16.5123 24.6193 16.5479 24.6045 16.585 24.6045H21.1688C21.2414 24.6045 21.3109 24.5757 21.3622 24.5244C21.4135 24.4731 21.4423 24.4036 21.4423 24.3311C21.4423 24.2585 21.4135 24.189 21.3622 24.1377C21.3109 24.0864 21.2414 24.0576 21.1688 24.0576H16.585C16.4029 24.0578 16.2283 24.1303 16.0995 24.259C15.9707 24.3878 15.8983 24.5624 15.8981 24.7446V27.3928C15.8983 27.5749 15.9707 27.7495 16.0995 27.8783C16.2283 28.0071 16.4029 28.0795 16.585 28.0797H23.6063C23.7884 28.0795 23.963 28.0071 24.0918 27.8783C24.2206 27.7495 24.293 27.5749 24.2932 27.3928Z" fill="white"/>
<path d="M27.6869 24.0576H25.8125C25.6613 24.0578 25.5162 24.118 25.4093 24.2249C25.3023 24.3319 25.2421 24.4769 25.2419 24.6282V27.5091C25.2421 27.6604 25.3023 27.8055 25.4093 27.9124C25.5162 28.0194 25.6613 28.0796 25.8125 28.0798H27.6869C27.8381 28.0796 27.9832 28.0194 28.0901 27.9124C28.1971 27.8055 28.2573 27.6604 28.2575 27.5091V24.6282C28.2573 24.4769 28.1971 24.3319 28.0901 24.2249C27.9832 24.118 27.8381 24.0578 27.6869 24.0576ZM27.7106 27.5091C27.7106 27.5154 27.7081 27.5214 27.7036 27.5259C27.6992 27.5303 27.6932 27.5329 27.6869 27.5329H25.8125C25.8062 27.5329 25.8002 27.5303 25.7958 27.5259C25.7913 27.5214 25.7888 27.5154 25.7888 27.5091V24.6282C25.7888 24.6219 25.7913 24.6159 25.7958 24.6114C25.8002 24.607 25.8062 24.6045 25.8125 24.6045H27.6869C27.6932 24.6045 27.6992 24.607 27.7036 24.6114C27.7081 24.6159 27.7106 24.6219 27.7106 24.6282V27.5091Z" fill="white"/>
<path d="M27.9093 30.7285H22.7719C22.6993 30.7285 22.6298 30.7573 22.5785 30.8086C22.5272 30.8599 22.4984 30.9294 22.4984 31.002C22.4984 31.0745 22.5272 31.144 22.5785 31.1953C22.6298 31.2466 22.6993 31.2754 22.7719 31.2754H27.9093C27.9818 31.2754 28.0514 31.2466 28.1027 31.1953C28.154 31.144 28.1828 31.0745 28.1828 31.002C28.1828 30.9294 28.154 30.8599 28.1027 30.8086C28.0514 30.7573 27.9818 30.7285 27.9093 30.7285Z" fill="white"/>
<path d="M27.9093 29.3315H22.7719C22.6993 29.3315 22.6298 29.3604 22.5785 29.4116C22.5272 29.4629 22.4984 29.5325 22.4984 29.605C22.4984 29.6775 22.5272 29.7471 22.5785 29.7983C22.6298 29.8496 22.6993 29.8784 22.7719 29.8784H27.9093C27.9818 29.8784 28.0514 29.8496 28.1027 29.7983C28.154 29.7471 28.1828 29.6775 28.1828 29.605C28.1828 29.5325 28.154 29.4629 28.1027 29.4116C28.0514 29.3604 27.9818 29.3315 27.9093 29.3315Z" fill="white"/>
<path d="M36.5838 17.6731C36.5838 16.0937 35.961 14.578 34.8506 13.4549C33.7401 12.3317 32.2316 11.6917 30.6523 11.6737C29.073 11.6557 27.5503 12.2612 26.4146 13.3588C25.2788 14.4563 24.6217 15.9574 24.5857 17.5364H18.9378V17.5161C18.9376 17.3354 18.8657 17.1621 18.7379 17.0343C18.6101 16.9065 18.4368 16.8346 18.2561 16.8344H16.5798C16.3991 16.8346 16.2258 16.9065 16.098 17.0343C15.9702 17.1621 15.8983 17.3354 15.8981 17.5161V17.5746C15.2062 17.6869 14.5767 18.0415 14.1221 18.575C13.6674 19.1086 13.4172 19.7864 13.4162 20.4873V36.1469V36.1479C13.4161 36.4341 13.4724 36.7175 13.5818 36.982C13.6913 37.2464 13.8518 37.4867 14.0542 37.689C14.2566 37.8914 14.4968 38.0519 14.7613 38.1614C15.0257 38.2709 15.3091 38.3272 15.5953 38.327H30.4471C30.5199 38.3264 30.5895 38.2971 30.6407 38.2454C30.692 38.1937 30.7207 38.1238 30.7206 38.051V36.1479C30.7206 36.0754 30.6917 36.0058 30.6405 35.9546C30.5892 35.9033 30.5196 35.8745 30.4471 35.8745C30.3746 35.8745 30.305 35.9033 30.2538 35.9546C30.2025 36.0058 30.1737 36.0754 30.1737 36.1479V37.7383C29.7899 37.6497 29.4511 37.4252 29.2198 37.1064C28.9885 36.7875 28.8803 36.3958 28.9152 36.0034C28.9502 35.611 29.1258 35.2445 29.4097 34.9715C29.6937 34.6985 30.0668 34.5374 30.4602 34.5179C30.5116 34.5152 30.5612 34.498 30.6032 34.4683C30.6453 34.4387 30.6781 34.3978 30.698 34.3504C30.6983 34.3497 30.6987 34.3492 30.699 34.3486C30.7053 34.3333 30.7102 34.3174 30.7137 34.3012C30.714 34.2999 30.7146 34.2986 30.7149 34.2972C30.7186 34.2791 30.7205 34.2607 30.7206 34.2423L30.7204 34.2411V23.6713C32.2871 23.6339 33.777 22.9857 34.8724 21.8651C35.9679 20.7445 36.582 19.2402 36.5838 17.6731ZM30.5839 12.22C31.6624 12.22 32.7167 12.5399 33.6134 13.1391C34.5102 13.7382 35.2091 14.5899 35.6219 15.5863C36.0346 16.5827 36.1426 17.6791 35.9322 18.7369C35.7218 19.7947 35.2024 20.7664 34.4398 21.529C33.6772 22.2916 32.7055 22.811 31.6477 23.0214C30.5899 23.2318 29.4935 23.1238 28.4971 22.7111C27.5007 22.2983 26.649 21.5994 26.0498 20.7026C25.4507 19.8059 25.1308 18.7516 25.1308 17.6731C25.1325 16.2274 25.7075 14.8413 26.7298 13.819C27.7521 12.7967 29.1382 12.2217 30.5839 12.22ZM16.445 17.5161C16.445 17.4804 16.4592 17.4461 16.4845 17.4208C16.5098 17.3955 16.5441 17.3813 16.5798 17.3813H18.2561C18.2918 17.3813 18.3261 17.3955 18.3514 17.4208C18.3767 17.4461 18.3909 17.4804 18.3909 17.5161L18.3908 20.8633L18.0086 20.3545C17.9446 20.2687 17.8617 20.1988 17.7664 20.1503C17.671 20.1017 17.5657 20.0757 17.4587 20.0744C17.4549 20.0743 17.4511 20.0743 17.4473 20.0743C17.3422 20.074 17.2384 20.0974 17.1437 20.1429C17.0489 20.1884 16.9657 20.2548 16.9003 20.337L16.445 20.9046V17.5161ZM28.3619 36.1479C28.3612 36.4342 28.4172 36.7177 28.5267 36.9822C28.6362 37.2467 28.797 37.4869 28.9998 37.6889L29 37.6891C29.0314 37.7205 29.0636 37.7509 29.0967 37.7802H15.5953C15.232 37.7802 14.8791 37.6592 14.5924 37.4361C14.3057 37.2131 14.1016 36.9008 14.0124 36.5486H24.0198C24.0924 36.5486 24.1619 36.5198 24.2132 36.4686C24.2645 36.4173 24.2933 36.3477 24.2933 36.2752C24.2933 36.2027 24.2645 36.1331 24.2132 36.0819C24.1619 36.0306 24.0924 36.0018 24.0198 36.0018H13.9699C14.0069 35.596 14.194 35.2188 14.4947 34.9438C14.7954 34.6689 15.1879 34.5163 15.5953 34.5157H29.0954C28.8643 34.7202 28.6795 34.9715 28.553 35.2529C28.4266 35.5343 28.3614 35.8394 28.3619 36.1479ZM15.5953 33.9689C15.2864 33.9688 14.9811 34.0346 14.6996 34.1618C14.4182 34.289 14.1671 34.4747 13.963 34.7066L13.9631 34.705V20.4874C13.9638 19.9314 14.1569 19.3928 14.5096 18.963C14.8623 18.5333 15.3529 18.2388 15.8981 18.1297V20.9283C15.8972 21.0401 15.9315 21.1493 15.9961 21.2405C16.0607 21.3317 16.1524 21.4002 16.2581 21.4364C16.3165 21.4571 16.3779 21.4677 16.4398 21.4678C16.5201 21.4677 16.5993 21.4494 16.6715 21.4143C16.7437 21.3792 16.8071 21.3283 16.8568 21.2652L17.3269 20.6791C17.3416 20.6606 17.3604 20.6458 17.3817 20.6358C17.4031 20.6258 17.4265 20.6207 17.4501 20.6211C17.4737 20.6213 17.497 20.627 17.518 20.6377C17.5391 20.6484 17.5573 20.6639 17.5714 20.6829L17.9686 21.2118C18.0365 21.3022 18.1311 21.3689 18.239 21.4025C18.3468 21.4361 18.4626 21.435 18.5697 21.3992C18.6769 21.3634 18.7701 21.2948 18.8362 21.2032C18.9023 21.1115 18.9378 21.0013 18.9378 20.8883V18.0833H24.5983C24.6992 19.5287 25.319 20.8889 26.3435 21.9134C27.368 22.9379 28.7282 23.5577 30.1736 23.6587V33.9689H15.5953Z" fill="white"/>
</svg>
