<svg width="60" height="60" viewBox="0 0 60 60" fill="none" xmlns="http://www.w3.org/2000/svg">
<rect width="60" height="60" rx="6" fill="#FFD05A"/>
<path d="M28.5979 14.8541C29.1966 13.0115 31.8034 13.0115 32.4021 14.8541L34.878 22.4742C35.1458 23.2982 35.9137 23.8561 36.7801 23.8561H44.7924C46.7298 23.8561 47.5353 26.3354 45.9679 27.4742L39.4859 32.1836C38.7849 32.6929 38.4916 33.5957 38.7594 34.4197L41.2353 42.0398C41.834 43.8824 39.725 45.4146 38.1576 44.2758L31.6756 39.5664C30.9746 39.0571 30.0254 39.0571 29.3244 39.5664L22.8424 44.2758C21.275 45.4146 19.166 43.8824 19.7647 42.0398L22.2406 34.4197C22.5084 33.5957 22.2151 32.6929 21.5141 32.1836L15.0321 27.4742C13.4647 26.3354 14.2702 23.8561 16.2077 23.8561H24.2199C25.0863 23.8561 25.8542 23.2982 26.122 22.4742L28.5979 14.8541Z" fill="white"/>
</svg>
