<svg width="50" height="50" viewBox="0 0 50 50" fill="none" xmlns="http://www.w3.org/2000/svg">
<rect width="50" height="50" rx="8" fill="#1A906B"/>
<path d="M39.0063 20.034L25.1593 13.1089C24.9991 13.0371 24.8254 13 24.6498 13C24.4742 13 24.3006 13.0371 24.1403 13.1089L10.2966 20.034C10.2103 20.0621 10.1352 20.1167 10.082 20.1901C10.0287 20.2635 10 20.3519 10 20.4426C10 20.5333 10.0287 20.6216 10.082 20.695C10.1352 20.7684 10.2103 20.8231 10.2966 20.8512L12.3901 21.8963H12.2794V33.4674C12.1241 33.5562 11.9985 33.6887 11.918 33.8484L11.0128 35.6781C10.9436 35.8175 10.9111 35.9721 10.9183 36.1275C10.9255 36.2829 10.9722 36.4339 11.054 36.5662C11.1358 36.6985 11.25 36.8078 11.3858 36.8837C11.5216 36.9596 11.6745 36.9996 11.8301 37H13.6631C13.8194 37.0005 13.9731 36.9609 14.1098 36.885C14.2464 36.8092 14.3614 36.6996 14.4436 36.5667C14.5259 36.4339 14.5728 36.2821 14.5798 36.126C14.5867 35.9699 14.5536 35.8146 14.4835 35.6749L13.5817 33.8484C13.5012 33.6887 13.3755 33.5562 13.2203 33.4674V22.3033L15.4994 23.4493V29.1079C15.4994 30.3907 16.4761 31.5823 18.2407 32.4647C19.9598 33.3242 22.2389 33.7963 24.6579 33.7963C27.077 33.7963 29.3561 33.3242 31.0752 32.4647C32.8431 31.5823 33.8165 30.3874 33.8165 29.1079V23.4493L39.0258 20.8447C39.1121 20.8166 39.1872 20.7619 39.2405 20.6885C39.2937 20.6151 39.3224 20.5267 39.3224 20.4361C39.3224 20.3454 39.2937 20.257 39.2405 20.1836C39.1872 20.1102 39.1121 20.0556 39.0258 20.0275L39.0063 20.034ZM13.6631 36.0884H11.8301L12.7449 34.2586L13.6631 36.0884ZM32.8919 29.1079C32.8919 30.026 32.0975 30.9279 30.6584 31.6474C29.0663 32.4419 26.9305 32.8846 24.6514 32.8846C22.3724 32.8846 20.2366 32.4419 18.6445 31.6474C17.2054 30.9279 16.411 30.0195 16.411 29.1079V23.8986L24.1403 27.773C24.3006 27.8448 24.4742 27.8819 24.6498 27.8819C24.8254 27.8819 24.9991 27.8448 25.1593 27.773L32.8919 23.9051V29.1079ZM24.7524 26.9493C24.7179 26.9549 24.6827 26.9549 24.6482 26.9493C24.6147 26.954 24.5807 26.954 24.5473 26.9493L11.524 20.4377L24.5473 13.9261C24.5818 13.9205 24.6169 13.9205 24.6514 13.9261C24.6849 13.9214 24.7189 13.9214 24.7524 13.9261L37.7756 20.4377L24.7524 26.9493Z" fill="white"/>
</svg>
