<svg width="60" height="60" viewBox="0 0 60 60" fill="none" xmlns="http://www.w3.org/2000/svg">
<rect width="60" height="60" rx="4" fill="white"/>
<path opacity="0.2" d="M21 21V27.887C21 32.8496 24.9693 36.963 29.9318 36.9997C31.1194 37.0088 32.297 36.7826 33.3968 36.3344C34.4966 35.8861 35.4968 35.2246 36.3398 34.388C37.1828 33.5514 37.8518 32.5563 38.3084 31.4599C38.7649 30.3635 39 29.1876 39 28V21C39 20.7348 38.8946 20.4804 38.7071 20.2929C38.5196 20.1054 38.2652 20 38 20H22C21.7348 20 21.4804 20.1054 21.2929 20.2929C21.1054 20.4804 21 20.7348 21 21Z" fill="#1A906B"/>
<path d="M21 21V27.887C21 32.8496 24.9693 36.963 29.9318 36.9997C31.1194 37.0088 32.297 36.7826 33.3968 36.3344C34.4966 35.8861 35.4968 35.2246 36.3398 34.388C37.1828 33.5514 37.8518 32.5563 38.3084 31.4599C38.7649 30.3635 39 29.1876 39 28V21C39 20.7348 38.8946 20.4804 38.7071 20.2929C38.5196 20.1054 38.2652 20 38 20H22C21.7348 20 21.4804 20.1054 21.2929 20.2929C21.1054 20.4804 21 20.7348 21 21Z" stroke="#1A906B" stroke-width="2" stroke-linecap="round" stroke-linejoin="round"/>
<path d="M26 42H34" stroke="#1A906B" stroke-width="2" stroke-linecap="round" stroke-linejoin="round"/>
<path d="M30 37V42" stroke="#1A906B" stroke-width="2" stroke-linecap="round" stroke-linejoin="round"/>
<path d="M38.7773 30H40.0004C41.0613 30 42.0787 29.5786 42.8288 28.8284C43.579 28.0783 44.0004 27.0609 44.0004 26V24C44.0004 23.7348 43.895 23.4804 43.7075 23.2929C43.52 23.1054 43.2656 23 43.0004 23H39.0004" stroke="#1A906B" stroke-width="2" stroke-linecap="round" stroke-linejoin="round"/>
<path d="M21.2458 30H19.9844C18.9235 30 17.9061 29.5786 17.1559 28.8284C16.4058 28.0783 15.9844 27.0609 15.9844 26V24C15.9844 23.7348 16.0897 23.4804 16.2773 23.2929C16.4648 23.1054 16.7192 23 16.9844 23H20.9844" stroke="#1A906B" stroke-width="2" stroke-linecap="round" stroke-linejoin="round"/>
</svg>
