<svg width="60" height="60" viewBox="0 0 60 60" fill="none" xmlns="http://www.w3.org/2000/svg">
<rect width="60" height="60" rx="4" fill="white"/>
<path opacity="0.2" d="M25 34C28.5899 34 31.5 31.0899 31.5 27.5C31.5 23.9101 28.5899 21 25 21C21.4101 21 18.5 23.9101 18.5 27.5C18.5 31.0899 21.4101 34 25 34Z" fill="#FFD05A"/>
<path d="M25 34C28.5899 34 31.5 31.0899 31.5 27.5C31.5 23.9101 28.5899 21 25 21C21.4101 21 18.5 23.9101 18.5 27.5C18.5 31.0899 21.4101 34 25 34Z" stroke="#FFD05A" stroke-width="2" stroke-miterlimit="10"/>
<path d="M33.4258 21.2421C34.3198 20.9902 35.2574 20.9328 36.1755 21.0738C37.0936 21.2148 37.9708 21.5509 38.748 22.0595C39.5252 22.568 40.1845 23.2372 40.6813 24.022C41.1781 24.8068 41.501 25.6889 41.6282 26.609C41.7554 27.5291 41.684 28.4658 41.4187 29.3559C41.1534 30.2461 40.7005 31.069 40.0903 31.7694C39.4802 32.4697 38.7271 33.0312 37.8817 33.416C37.0363 33.8007 36.1183 33.9999 35.1895 34" stroke="#FFD05A" stroke-width="2" stroke-linecap="round" stroke-linejoin="round"/>
<path d="M16 38.6746C17.0152 37.2306 18.3629 36.052 19.9293 35.2384C21.4958 34.4248 23.235 34.0001 25.0001 34C26.7652 33.9999 28.5045 34.4246 30.071 35.238C31.6375 36.0515 32.9853 37.23 34.0006 38.6739" stroke="#FFD05A" stroke-width="2" stroke-linecap="round" stroke-linejoin="round"/>
<path d="M35.1914 34C36.9567 33.9987 38.6963 34.4228 40.263 35.2364C41.8296 36.05 43.1771 37.2291 44.1914 38.6739" stroke="#FFD05A" stroke-width="2" stroke-linecap="round" stroke-linejoin="round"/>
</svg>
