<svg width="24" height="24" viewBox="0 0 24 24" fill="none" xmlns="http://www.w3.org/2000/svg">
<path d="M9 12.0005H15" stroke="#1A906B" stroke-width="1.5" stroke-linecap="round" stroke-linejoin="round"/>
<path d="M9 15.0005H15" stroke="#1A906B" stroke-width="1.5" stroke-linecap="round" stroke-linejoin="round"/>
<path d="M5.25 3.75055H18.75C18.9489 3.75055 19.1397 3.82957 19.2803 3.97022C19.421 4.11087 19.5 4.30164 19.5 4.50055V18.7505C19.5 19.3473 19.2629 19.9196 18.841 20.3415C18.419 20.7635 17.8467 21.0005 17.25 21.0005H6.75C6.15326 21.0005 5.58097 20.7635 5.15901 20.3415C4.73705 19.9196 4.5 19.3473 4.5 18.7505V4.50055C4.5 4.30164 4.57902 4.11087 4.71967 3.97022C4.86032 3.82957 5.05109 3.75055 5.25 3.75055Z" stroke="#1A906B" stroke-width="1.5" stroke-linecap="round" stroke-linejoin="round"/>
<path d="M7.5 2.25055V5.25055" stroke="#1A906B" stroke-width="1.5" stroke-linecap="round" stroke-linejoin="round"/>
<path d="M12 2.25055V5.25055" stroke="#1A906B" stroke-width="1.5" stroke-linecap="round" stroke-linejoin="round"/>
<path d="M16.5 2.25055V5.25055" stroke="#1A906B" stroke-width="1.5" stroke-linecap="round" stroke-linejoin="round"/>
</svg>
