<svg width="9" height="16" viewBox="0 0 9 16" fill="none" xmlns="http://www.w3.org/2000/svg">
<path d="M0.275 8.90006C0.0991344 8.72441 0.000218815 8.48612 0 8.23756V7.76256C0.00288001 7.51454 0.101395 7.27721 0.275 7.10006L6.7 0.68756C6.81735 0.569239 6.9771 0.502686 7.14375 0.502686C7.3104 0.502686 7.47015 0.569239 7.5875 0.68756L8.475 1.57506C8.59258 1.69026 8.65884 1.84795 8.65884 2.01256C8.65884 2.17717 8.59258 2.33485 8.475 2.45006L2.9125 8.00006L8.475 13.5501C8.59332 13.6674 8.65987 13.8272 8.65987 13.9938C8.65987 14.1605 8.59332 14.3202 8.475 14.4376L7.5875 15.3126C7.47015 15.4309 7.3104 15.4974 7.14375 15.4974C6.9771 15.4974 6.81735 15.4309 6.7 15.3126L0.275 8.90006Z" fill="#6D737A"/>
</svg>
