<svg width="9" height="16" viewBox="0 0 9 16" fill="none" xmlns="http://www.w3.org/2000/svg">
<path d="M8.725 8.90006C8.90087 8.72441 8.99978 8.48612 9 8.23756V7.76256C8.99712 7.51454 8.8986 7.27721 8.725 7.10006L2.3 0.68756C2.18265 0.569239 2.0229 0.502686 1.85625 0.502686C1.6896 0.502686 1.52985 0.569239 1.4125 0.68756L0.525 1.57506C0.40742 1.69026 0.341161 1.84795 0.341161 2.01256C0.341161 2.17717 0.40742 2.33485 0.525 2.45006L6.0875 8.00006L0.525 13.5501C0.406679 13.6674 0.340126 13.8272 0.340126 13.9938C0.340126 14.1605 0.406679 14.3202 0.525 14.4376L1.4125 15.3126C1.52985 15.4309 1.6896 15.4974 1.85625 15.4974C2.0229 15.4974 2.18265 15.4309 2.3 15.3126L8.725 8.90006Z" fill="#6D737A"/>
</svg>
