<svg width="20" height="10" viewBox="0 0 20 10" fill="none" xmlns="http://www.w3.org/2000/svg">
<path fill-rule="evenodd" clip-rule="evenodd" d="M14.72 0.719996C14.8606 0.579546 15.0512 0.500656 15.25 0.500656C15.4488 0.500656 15.6394 0.579546 15.78 0.719996L19.53 4.47C19.6705 4.61062 19.7493 4.80125 19.7493 5C19.7493 5.19875 19.6705 5.38937 19.53 5.53L15.78 9.28C15.7113 9.35368 15.6285 9.41279 15.5365 9.45378C15.4445 9.49477 15.3452 9.51681 15.2445 9.51859C15.1438 9.52036 15.0438 9.50184 14.9504 9.46412C14.857 9.4264 14.7722 9.37025 14.701 9.29903C14.6297 9.22782 14.5736 9.14298 14.5359 9.04959C14.4982 8.9562 14.4796 8.85618 14.4814 8.75547C14.4832 8.65477 14.5052 8.55546 14.5462 8.46346C14.5872 8.37146 14.6463 8.28866 14.72 8.22L17.19 5.75H1C0.801088 5.75 0.610322 5.67098 0.46967 5.53033C0.329018 5.38967 0.25 5.19891 0.25 5C0.25 4.80108 0.329018 4.61032 0.46967 4.46967C0.610322 4.32901 0.801088 4.25 1 4.25H17.19L14.72 1.78C14.5795 1.63937 14.5007 1.44875 14.5007 1.25C14.5007 1.05125 14.5795 0.860621 14.72 0.719996Z" fill="white"/>
</svg>
