<svg width="45" height="45" viewBox="0 0 45 45" fill="none" xmlns="http://www.w3.org/2000/svg">
<circle cx="22.5" cy="22.5" r="22" stroke="#1A906B"/>
<path fill-rule="evenodd" clip-rule="evenodd" d="M18.7198 23.53C18.5794 23.3894 18.5005 23.1988 18.5005 23C18.5005 22.8013 18.5794 22.6107 18.7198 22.47L26.2198 14.97C26.2885 14.8963 26.3713 14.8372 26.4633 14.7963C26.5553 14.7553 26.6546 14.7332 26.7553 14.7314C26.856 14.7297 26.956 14.7482 27.0494 14.7859C27.1428 14.8236 27.2276 14.8798 27.2989 14.951C27.3701 15.0222 27.4262 15.107 27.464 15.2004C27.5017 15.2938 27.5202 15.3939 27.5184 15.4946C27.5166 15.5953 27.4946 15.6946 27.4536 15.7866C27.4126 15.8786 27.3535 15.9614 27.2798 16.03L20.3098 23L27.2798 29.97C27.3535 30.0387 27.4126 30.1215 27.4536 30.2135C27.4946 30.3055 27.5166 30.4048 27.5184 30.5055C27.5202 30.6062 27.5017 30.7062 27.464 30.7996C27.4262 30.893 27.3701 30.9779 27.2989 31.0491C27.2276 31.1203 27.1428 31.1764 27.0494 31.2142C26.956 31.2519 26.856 31.2704 26.7553 31.2686C26.6546 31.2668 26.5553 31.2448 26.4633 31.2038C26.3713 31.1628 26.2885 31.1037 26.2198 31.03L18.7198 23.53Z" fill="#1A906B"/>
</svg>
