<svg width="45" height="45" viewBox="0 0 45 45" fill="none" xmlns="http://www.w3.org/2000/svg">
<circle cx="22.5" cy="22.5" r="22.5" fill="#1A906B"/>
<path fill-rule="evenodd" clip-rule="evenodd" d="M27.2798 22.47C27.4203 22.6106 27.4992 22.8012 27.4992 23C27.4992 23.1987 27.4203 23.3893 27.2798 23.53L19.7798 31.03C19.6377 31.1625 19.4496 31.2346 19.2553 31.2311C19.061 31.2277 18.8756 31.149 18.7382 31.0116C18.6008 30.8742 18.5221 30.6888 18.5187 30.4945C18.5152 30.3002 18.5874 30.1121 18.7198 29.97L25.6898 23L18.7198 16.03C18.5874 15.8878 18.5152 15.6997 18.5187 15.5054C18.5221 15.3111 18.6008 15.1258 18.7382 14.9883C18.8756 14.8509 19.061 14.7722 19.2553 14.7688C19.4496 14.7654 19.6377 14.8375 19.7798 14.97L27.2798 22.47Z" fill="white"/>
</svg>
