<svg width="20" height="21" viewBox="0 0 20 21" fill="none" xmlns="http://www.w3.org/2000/svg">
<path d="M18.7422 15.0023C15.5861 13.4989 15.0831 11.1777 15.0607 11.0055C15.0336 10.797 15.0029 10.633 15.2367 10.4209C15.4622 10.2159 16.4625 9.60668 16.74 9.41607C17.1988 9.10043 17.4008 8.7853 17.2519 8.39793C17.1477 8.12994 16.8942 8.029 16.627 8.029C16.5428 8.02925 16.4588 8.03853 16.3766 8.05667C15.8725 8.16427 15.383 8.41279 15.0998 8.47991C15.0657 8.48855 15.0308 8.49319 14.9956 8.49375C14.8446 8.49375 14.7873 8.42765 14.8019 8.24882C14.8373 7.7067 14.9123 6.6486 14.8254 5.66018C14.7061 4.30027 14.2604 3.62646 13.7319 3.03054C13.4762 2.74155 12.289 1.5 9.99782 1.5C7.70667 1.5 6.52101 2.74155 6.2669 3.02695C5.73681 3.62287 5.2916 4.29668 5.1734 5.65659C5.08644 6.64501 5.16455 7.7026 5.19683 8.24523C5.20725 8.41535 5.15413 8.49016 5.00313 8.49016C4.96798 8.48957 4.93303 8.48493 4.89898 8.47633C4.61624 8.4092 4.12677 8.16069 3.62271 8.05308C3.54049 8.03495 3.45651 8.02567 3.37225 8.02541C3.10408 8.02541 2.85154 8.12789 2.7474 8.39434C2.59847 8.78172 2.79947 9.09684 3.25978 9.41248C3.53732 9.60309 4.53761 10.2118 4.76308 10.4173C4.99636 10.6294 4.96616 10.7934 4.93908 11.0019C4.91669 11.1767 4.41316 13.4978 1.25763 14.9987C1.07278 15.0868 0.758268 15.2733 1.31283 15.5746C2.18346 16.0481 2.76302 15.9973 3.21343 16.2827C3.59564 16.5251 3.36965 17.0478 3.64771 17.2363C3.9893 17.4684 4.99896 17.2199 6.30335 17.6437C7.39685 17.9983 8.06128 19 10.0004 19C11.9396 19 12.6233 17.9936 13.6975 17.6437C14.9993 17.2199 16.011 17.4684 16.3531 17.2363C16.6307 17.0478 16.4052 16.5251 16.7874 16.2827C17.2378 15.9973 17.8169 16.0481 18.688 15.5746C19.2415 15.2769 18.927 15.0904 18.7422 15.0023Z" fill="white"/>
</svg>
