<svg width="68" height="68" viewBox="0 0 68 68" fill="none" xmlns="http://www.w3.org/2000/svg">
<path d="M36.8421 46.6172L31.7421 60.4563C31.5912 60.8629 31.3194 61.2137 30.9632 61.4614C30.6071 61.709 30.1837 61.8418 29.7499 61.8418C29.3161 61.8418 28.8927 61.709 28.5366 61.4614C28.1805 61.2137 27.9087 60.8629 27.7577 60.4563L22.6577 46.6172C22.5501 46.3251 22.3804 46.0598 22.1602 45.8397C21.9401 45.6196 21.6748 45.4498 21.3827 45.3422L7.54367 40.2422C7.137 40.0912 6.78626 39.8195 6.53858 39.4633C6.2909 39.1072 6.15814 38.6838 6.15814 38.25C6.15814 37.8162 6.2909 37.3928 6.53858 37.0367C6.78626 36.6806 7.137 36.4088 7.54367 36.2578L21.3827 31.1578C21.6748 31.0502 21.9401 30.8805 22.1602 30.6603C22.3804 30.4402 22.5501 30.1749 22.6577 29.8828L27.7577 16.0438C27.9087 15.6371 28.1805 15.2864 28.5366 15.0387C28.8927 14.791 29.3161 14.6582 29.7499 14.6582C30.1837 14.6582 30.6071 14.791 30.9632 15.0387C31.3194 15.2864 31.5912 15.6371 31.7421 16.0438L36.8421 29.8828C36.9497 30.1749 37.1195 30.4402 37.3396 30.6603C37.5597 30.8805 37.825 31.0502 38.1171 31.1578L51.9562 36.2578C52.3629 36.4088 52.7136 36.6806 52.9613 37.0367C53.2089 37.3928 53.3417 37.8162 53.3417 38.25C53.3417 38.6838 53.2089 39.1072 52.9613 39.4633C52.7136 39.8195 52.3629 40.0912 51.9562 40.2422L38.1171 45.3422C37.825 45.4498 37.5597 45.6196 37.3396 45.8397C37.1195 46.0598 36.9497 46.3251 36.8421 46.6172Z" fill="#1A906B"/>
<path d="M46.75 4.25V17" stroke="#1A906B" stroke-width="2.25" stroke-linecap="round" stroke-linejoin="round"/>
<path d="M53.125 10.625H40.375" stroke="#1A906B" stroke-width="2.25" stroke-linecap="round" stroke-linejoin="round"/>
<path d="M59.5 19.125V27.625" stroke="#1A906B" stroke-width="2.25" stroke-linecap="round" stroke-linejoin="round"/>
<path d="M63.75 23.375H55.25" stroke="#1A906B" stroke-width="2.25" stroke-linecap="round" stroke-linejoin="round"/>
</svg>
